<svg width="64" height="64" viewBox="0 0 64 64" fill="none" xmlns="http://www.w3.org/2000/svg">
<path d="M42.2348 39.6544C44.838 39.6544 46.9483 37.5715 46.9483 35.0023C46.9483 32.433 44.838 30.3502 42.2348 30.3502C39.6316 30.3502 37.5213 32.433 37.5213 35.0023C37.5213 37.5715 39.6316 39.6544 42.2348 39.6544Z" fill="#8BBDC7"/>
<path d="M15.8748 27.0901C19.6716 27.0901 22.7496 24.0523 22.7496 20.3049C22.7496 16.5575 19.6716 13.5196 15.8748 13.5196C12.078 13.5196 9 16.5575 9 20.3049C9 24.0523 12.078 27.0901 15.8748 27.0901Z" fill="#00436E"/>
<path d="M47.1257 27.0901C50.9225 27.0901 54.0005 24.0523 54.0005 20.3049C54.0005 16.5575 50.9225 13.5196 47.1257 13.5196C43.3288 13.5196 40.2509 16.5575 40.2509 20.3049C40.2509 24.0523 43.3288 27.0901 47.1257 27.0901Z" fill="#00436E"/>
<path d="M31.3901 53C35.187 53 38.2649 49.9621 38.2649 46.2147C38.2649 42.4673 35.187 39.4295 31.3901 39.4295C27.5933 39.4295 24.5153 42.4673 24.5153 46.2147C24.5153 49.9621 27.5933 53 31.3901 53Z" fill="#00436E"/>
<path d="M22.4637 18.3656C22.4637 18.3656 24.6461 25.5533 31.3963 25.5533C38.5795 25.5533 40.5444 18.3593 40.5444 18.3593L45.6149 26.9254C45.6149 26.9254 37.764 25.0028 34.3689 30.831C30.9737 36.6591 35.8097 41.0172 35.8097 41.0172H26.9722C26.9722 41.0172 31.4089 36.2212 28.4258 30.831C25.0898 24.8235 17.9932 26.769 17.9932 26.769L22.4637 18.3656Z" fill="#00436E"/>
<path d="M31.5018 21.3042C34.105 21.3042 36.2153 19.2214 36.2153 16.6521C36.2153 14.0828 34.105 12 31.5018 12C28.8986 12 26.7883 14.0828 26.7883 16.6521C26.7883 19.2214 28.8986 21.3042 31.5018 21.3042Z" fill="#8BBDC7"/>
<path d="M20.5868 39.6544C23.19 39.6544 25.3003 37.5715 25.3003 35.0023C25.3003 32.433 23.19 30.3502 20.5868 30.3502C17.9836 30.3502 15.8734 32.433 15.8734 35.0023C15.8734 37.5715 17.9836 39.6544 20.5868 39.6544Z" fill="#8BBDC7"/>
</svg>
